<svg width="40" height="59" viewBox="0 0 40 59" fill="none" xmlns="http://www.w3.org/2000/svg">
<path fill-rule="evenodd" clip-rule="evenodd" d="M20 37.4817C31.0457 37.4817 40 29.0911 40 18.7408C40 8.39056 31.0457 0 20 0C16.6793 0 13.5476 0.758337 10.7915 2.10028C8.03043 2.98394 5.02773 2.70724 2.47377 1.33203L1.27642 0.687302C0.699531 0.37667 0 0.794497 0 1.4497V18.7408V55.2537C0 55.6998 0.295475 56.0919 0.724277 56.2149L9.57173 58.7528C10.2108 58.9361 10.8475 58.4563 10.8475 57.7915V35.4086C13.59 36.7336 16.7018 37.4817 20 37.4817ZM20 27.0082C15.1273 27.0082 11.1772 23.3068 11.1772 18.7408C11.1772 14.1749 15.1273 10.4735 20 10.4735C24.8727 10.4735 28.8228 14.1749 28.8228 18.7408C28.8228 23.3068 24.8727 27.0082 20 27.0082Z" fill="black"/>
</svg>
