<svg width="332" height="332" viewBox="0 0 332 332" fill="none" xmlns="http://www.w3.org/2000/svg">
<g clip-path="url(#clip0_96_110)">
<rect width="332" height="332" rx="106" fill="black"/>
<path d="M95 191.711V264.847C95 269.169 99.4304 272.073 103.393 270.349L127.793 259.736C129.983 258.784 131.4 256.623 131.4 254.234V202.353C131.4 201.12 131.896 199.939 132.776 199.075L178.326 154.411C181.881 150.924 184.273 146.425 185.174 141.527L185.574 139.355C185.867 137.763 185.853 136.131 185.534 134.545C184.485 129.338 180.31 125.332 175.064 124.5L173.215 124.207C170.601 123.793 167.925 124.059 165.443 124.98L161.83 126.322C157.848 127.8 154.224 130.103 151.196 133.081L125.333 158.515L96.7296 187.496C95.6214 188.619 95 190.134 95 191.711Z" fill="url(#paint0_linear_96_110)"/>
<path d="M205.412 212.532H172.463C167.189 212.532 164.481 206.215 168.118 202.395L197.114 171.938C206.456 162.125 211.667 149.096 211.667 135.548C211.667 114.799 194.846 97.9785 174.098 97.9785H172.549C158.398 97.9785 144.792 103.438 134.566 113.219L105.147 141.358C101.331 145.009 95 142.304 95 137.023V112.398C95 107.598 96.5699 102.93 99.4704 99.105L107.471 88.5546C122.545 68.6766 146.054 57 171.002 57C214.079 57 249 91.9211 249 134.999V137.682C249 158.796 240.723 179.069 225.946 194.15L209.698 210.732C208.569 211.883 207.025 212.532 205.412 212.532Z" fill="url(#paint1_linear_96_110)"/>
</g>
<defs>
<linearGradient id="paint0_linear_96_110" x1="231.5" y1="74.5" x2="20.9999" y2="283" gradientUnits="userSpaceOnUse">
<stop stop-color="white"/>
<stop offset="1" stop-opacity="0.7"/>
</linearGradient>
<linearGradient id="paint1_linear_96_110" x1="231.5" y1="74.5" x2="20.9999" y2="283" gradientUnits="userSpaceOnUse">
<stop stop-color="white"/>
<stop offset="1" stop-opacity="0.7"/>
</linearGradient>
<clipPath id="clip0_96_110">
<rect width="332" height="332" rx="106" fill="white"/>
</clipPath>
</defs>
</svg>
