<svg width="332" height="332" viewBox="0 0 332 332" fill="none" xmlns="http://www.w3.org/2000/svg">
<rect width="332" height="332" rx="106" fill="black"/>
<path d="M104 190.07V264.847C104 269.169 108.43 272.073 112.393 270.349L136.793 259.736C138.983 258.784 140.4 256.623 140.4 254.234V201.004C140.4 200.634 140.549 200.279 140.814 200.019L185.338 156.36C190.187 151.605 193.449 145.468 194.678 138.789C194.902 137.571 194.892 136.322 194.648 135.109L194.534 134.545C193.485 129.338 189.31 125.332 184.064 124.5L181.986 124.171C179.522 123.78 177 124.031 174.661 124.899C168.154 127.315 162.231 131.08 157.282 135.947L134.333 158.515L104.577 188.665C104.207 189.039 104 189.544 104 190.07Z" fill="url(#paint0_linear_96_110)"/>
<path d="M214.412 212.532H181.463C176.189 212.532 173.481 206.215 177.118 202.395L206.114 171.938C215.456 162.125 220.667 149.096 220.667 135.548C220.667 114.799 203.846 97.9785 183.098 97.9785H181.549C167.398 97.9785 153.792 103.438 143.566 113.219L105.691 149.447C105.055 150.055 104 149.604 104 148.724V112.398C104 107.598 105.57 102.93 108.47 99.105L116.471 88.5546C131.545 68.6766 155.054 57 180.002 57C223.079 57 258 91.9211 258 134.999V137.682C258 158.796 249.723 179.069 234.946 194.15L218.698 210.732C217.569 211.883 216.025 212.532 214.412 212.532Z" fill="url(#paint1_linear_96_110)"/>
<defs>
<linearGradient id="paint0_linear_96_110" x1="240.5" y1="74.5" x2="29.9999" y2="283" gradientUnits="userSpaceOnUse">
<stop stop-color="white"/>
<stop offset="1" stop-opacity="0.7"/>
</linearGradient>
<linearGradient id="paint1_linear_96_110" x1="240.5" y1="74.5" x2="29.9999" y2="283" gradientUnits="userSpaceOnUse">
<stop stop-color="white"/>
<stop offset="1" stop-opacity="0.7"/>
</linearGradient>
</defs>
</svg>
