<svg width="100" height="100" viewBox="0 0 100 100" fill="none" xmlns="http://www.w3.org/2000/svg">
<rect width="100" height="100" rx="34" fill="url(#paint0_linear_86_195)"/>
<path fill-rule="evenodd" clip-rule="evenodd" d="M52 58.4817C63.0457 58.4817 72 50.0911 72 39.7408C72 29.3906 63.0457 21 52 21C48.6793 21 45.5476 21.7583 42.7915 23.1003C40.0304 23.9839 37.0277 23.7072 34.4738 22.332L33.2764 21.6873C32.6995 21.3767 32 21.7945 32 22.4497V39.7408V76.2537C32 76.6998 32.2955 77.0919 32.7243 77.2149L41.5717 79.7528C42.2108 79.9361 42.8475 79.4563 42.8475 78.7915V56.4086C45.59 57.7336 48.7018 58.4817 52 58.4817ZM52 48.0082C47.1273 48.0082 43.1772 44.3068 43.1772 39.7408C43.1772 35.1749 47.1273 31.4735 52 31.4735C56.8727 31.4735 60.8228 35.1749 60.8228 39.7408C60.8228 44.3068 56.8727 48.0082 52 48.0082Z" fill="white"/>
<defs>
<linearGradient id="paint0_linear_86_195" x1="100" y1="-2.98023e-06" x2="2.98023e-06" y2="100" gradientUnits="userSpaceOnUse">
<stop/>
<stop offset="0.904532" stop-opacity="0.75"/>
</linearGradient>
</defs>
</svg>
