<svg width="17" height="17" viewBox="0 0 17 17" fill="none" xmlns="http://www.w3.org/2000/svg">
<path d="M4.4491 8.74943C4.4491 8.07159 4.99859 7.52209 5.67643 7.52209V7.52209C6.35427 7.52209 6.90377 8.07159 6.90377 8.74943V14.6237C6.90377 15.3905 6.20858 15.9695 5.45449 15.8308V15.8308C4.87202 15.7237 4.4491 15.216 4.4491 14.6237V8.74943Z" fill="white"/>
<path d="M13.5007 8.1991C13.5007 10.6502 11.4744 12.6371 8.9749 12.6371C6.47537 12.6371 4.4491 10.6502 4.4491 8.1991C4.4491 5.74803 6.47537 3.76105 8.9749 3.76105C11.4744 3.76105 13.5007 5.74803 13.5007 8.1991ZM6.97838 8.1991C6.97838 9.28037 7.87225 10.1569 8.9749 10.1569C10.0776 10.1569 10.9714 9.28037 10.9714 8.1991C10.9714 7.11783 10.0776 6.24129 8.9749 6.24129C7.87225 6.24129 6.97838 7.11783 6.97838 8.1991Z" fill="white"/>
<path fill-rule="evenodd" clip-rule="evenodd" d="M17 11.3041C16.3663 13.0667 15.1532 14.5774 13.548 15.603C11.9429 16.6285 10.035 17.1118 8.11901 16.9782V14.3736C8.18251 14.38 8.2462 14.3855 8.31005 14.3899C9.64108 14.4827 10.9665 14.147 12.0817 13.4345C13.1968 12.7221 14.0396 11.6725 14.4798 10.4481L17 11.3041ZM4.4491 15.8717C5.20403 16.2807 6.05656 16.6322 6.90378 16.8095V14.1274C6.10135 13.8794 5.3556 13.4703 4.71738 12.921C4.63869 12.8532 4.52378 12.7837 4.4491 12.7124V15.8717ZM3.22176 15.1195C3.09956 15.0251 3.06487 14.9647 2.94756 14.8637C1.50945 13.626 0.530631 11.9624 0.162291 10.1299C-0.206049 8.29748 0.056585 6.39812 0.909627 4.72523C1.76267 3.05234 3.15865 1.699 4.88196 0.874248C6.60527 0.0494937 8.56001 -0.200785 10.4443 0.16207C12.3285 0.524925 14.0374 1.48072 15.307 2.88183L13.3037 4.59699C12.4216 3.62362 11.2344 2.95962 9.92543 2.70754C8.61642 2.45546 7.25844 2.62933 6.06123 3.20229C4.86403 3.77526 3.89422 4.71544 3.3016 5.87762C2.70898 7.0398 2.52653 8.35931 2.78242 9.63233C2.88778 10.1565 2.97992 10.6236 3.22176 11.0955V15.1195Z" fill="white"/>
</svg>
